<?xml version="1.0" standalone="no"?>
<!DOCTYPE svg PUBLIC "-//W3C//DTD SVG 20010904//EN"
 "http://www.w3.org/TR/2001/REC-SVG-20010904/DTD/svg10.dtd">
<svg version="1.0" xmlns="http://www.w3.org/2000/svg"
 width="498.000000pt" height="501.000000pt" viewBox="0 0 498.000000 501.000000"
 preserveAspectRatio="xMidYMid meet">

<g transform="translate(0.000000,501.000000) scale(0.100000,-0.100000)"
fill="#000000" stroke="none">
<path d="M2470 4356 c-3 -3 -42 -7 -85 -10 -78 -5 -140 -11 -180 -20 -11 -2
-39 -7 -63 -11 -23 -4 -40 -11 -37 -16 4 -5 0 -6 -8 -3 -8 3 -41 -2 -73 -11
-33 -9 -68 -18 -79 -20 -11 -3 -29 -9 -40 -14 -11 -5 -34 -14 -52 -21 -22 -8
-30 -17 -26 -28 4 -13 3 -14 -5 -3 -8 11 -14 11 -38 -1 -16 -8 -28 -20 -26
-28 2 -10 0 -11 -11 -2 -17 15 -81 -13 -71 -30 4 -7 2 -8 -4 -4 -16 10 -83
-23 -75 -37 3 -5 1 -7 -5 -3 -6 3 -18 -2 -28 -11 -10 -10 -20 -17 -23 -17 -13
4 -92 -49 -102 -67 -5 -10 -16 -19 -23 -19 -21 0 -67 -40 -60 -52 4 -7 2 -8
-5 -4 -13 8 -93 -63 -85 -76 3 -4 -2 -5 -10 -2 -11 4 -16 0 -16 -10 0 -9 -4
-16 -9 -16 -11 0 -125 -116 -120 -121 1 -2 -11 -18 -27 -35 -35 -38 -38 -42
-91 -120 -23 -34 -39 -65 -36 -68 4 -3 2 -6 -4 -6 -13 0 -46 -49 -46 -67 0 -7
-4 -13 -8 -13 -5 0 -5 -7 -2 -17 4 -10 2 -14 -5 -9 -10 6 -29 -29 -24 -46 1
-5 -3 -8 -9 -8 -6 0 -9 -9 -6 -20 3 -13 1 -18 -6 -13 -7 4 -8 0 -4 -11 4 -9 3
-15 -2 -12 -4 3 -13 -6 -20 -21 -10 -21 -9 -28 1 -34 10 -7 9 -9 -4 -9 -14 0
-31 -32 -43 -80 -1 -3 -5 -12 -8 -20 -4 -8 -9 -28 -11 -43 -4 -22 -2 -26 8
-18 9 8 13 7 13 -4 0 -8 -3 -12 -7 -10 -13 8 -30 -12 -34 -41 -2 -16 -6 -36
-9 -44 -13 -30 -25 -101 -23 -130 1 -16 -2 -26 -6 -24 -4 3 -8 -10 -8 -28 0
-18 -3 -58 -6 -89 -5 -51 -4 -58 17 -73 13 -9 19 -16 13 -16 -5 0 -15 5 -21
11 -7 7 -12 6 -17 -6 -4 -11 -2 -14 7 -9 8 6 8 3 -1 -8 -10 -13 -12 -39 -6
-115 5 -54 8 -106 7 -115 0 -10 4 -18 9 -18 5 0 6 -4 3 -10 -8 -13 6 -111 15
-105 3 2 6 -6 5 -18 -1 -12 2 -38 6 -57 4 -19 11 -48 14 -65 3 -16 8 -37 10
-45 2 -8 4 -23 4 -33 1 -11 6 -15 13 -11 7 4 8 3 4 -5 -4 -6 -2 -18 4 -26 7
-8 9 -15 5 -15 -4 0 -2 -6 4 -14 7 -8 14 -24 16 -37 5 -22 26 -77 45 -112 18
-32 28 -52 46 -94 15 -34 23 -41 39 -37 20 6 20 6 1 -9 -17 -12 -17 -15 -4
-23 8 -5 23 -26 33 -46 9 -21 22 -35 27 -32 5 3 8 0 7 -7 -4 -19 20 -61 31
-54 5 3 12 0 16 -6 4 -8 3 -9 -4 -5 -24 15 -11 -10 27 -51 21 -23 36 -44 34
-46 -5 -6 171 -182 236 -237 29 -25 59 -44 67 -44 8 1 12 -2 9 -6 -6 -10 73
-72 85 -65 5 3 14 -4 20 -15 7 -13 17 -19 26 -16 9 3 12 1 9 -4 -3 -6 1 -10 9
-10 9 0 16 -4 16 -10 0 -5 6 -10 14 -10 8 0 21 -6 28 -13 24 -23 89 -57 99
-52 5 4 9 1 9 -5 0 -7 7 -9 16 -6 10 4 13 2 8 -6 -5 -8 -2 -9 9 -5 10 3 17 2
17 -4 0 -6 4 -8 9 -5 5 4 11 1 13 -4 2 -6 10 -12 18 -14 8 -1 25 -7 37 -14 42
-23 194 -71 213 -67 11 2 20 0 20 -4 0 -4 12 -8 28 -9 15 -1 56 -8 92 -16 79
-18 334 -40 368 -31 14 3 65 8 114 10 49 3 93 7 99 10 5 4 26 8 47 10 38 5 65
9 117 22 17 4 36 6 44 4 7 -1 10 2 7 7 -4 6 3 8 16 4 13 -3 19 -1 15 5 -4 6 4
8 20 5 19 -4 24 -2 18 8 -5 8 -4 11 3 6 12 -7 175 52 180 66 2 4 15 8 28 8 13
0 32 8 42 18 10 10 23 17 29 15 6 -2 17 2 24 9 8 7 39 26 69 42 30 16 60 34
65 40 6 6 17 12 25 14 8 2 17 8 18 13 2 5 10 9 17 9 8 0 20 8 27 19 7 10 15
18 18 17 11 -2 49 31 43 37 -3 4 0 7 8 7 21 0 111 81 105 95 -2 7 3 12 11 11
9 0 18 5 21 13 2 8 0 11 -6 8 -5 -4 -15 0 -21 7 -9 10 -9 16 -1 21 6 4 9 1 8
-5 -4 -16 31 -21 54 -9 10 5 18 17 18 25 0 8 5 12 10 9 6 -3 10 -2 10 4 0 5 6
16 13 23 40 44 61 70 51 65 -6 -3 -11 0 -11 7 0 8 6 12 14 9 19 -7 45 17 38
36 -3 8 -3 12 1 9 4 -4 15 4 26 18 17 21 18 27 6 42 -12 15 -11 16 4 4 14 -11
20 -8 45 30 17 24 33 50 36 58 4 8 24 47 46 85 21 39 36 76 33 84 -3 9 -1 12
5 8 13 -8 36 50 26 66 -3 5 -1 7 4 4 11 -7 29 29 36 68 2 11 7 28 11 37 4 9 4
22 0 29 -4 7 -3 9 4 5 9 -6 42 81 46 124 1 9 5 20 9 26 9 16 20 82 21 131 0
25 4 37 9 30 5 -7 6 6 4 31 -3 23 -1 44 3 47 13 8 10 249 -3 257 -9 6 -9 8 1
8 8 0 12 17 12 51 0 37 -3 48 -12 43 -7 -4 -10 -4 -6 1 4 4 2 15 -5 23 -6 9
-7 13 -1 9 7 -4 11 5 12 23 0 17 -4 30 -10 30 -5 0 -8 6 -5 14 6 16 -26 187
-39 208 -9 13 -14 33 -16 56 -1 6 -5 12 -10 12 -4 0 -7 3 -6 8 4 13 -24 112
-33 117 -5 3 -13 23 -19 43 -5 21 -17 46 -26 57 -8 11 -12 14 -8 6 4 -9 3 -12
-4 -8 -5 4 -8 16 -5 27 4 15 0 20 -13 20 -13 0 -15 3 -6 8 9 6 7 14 -8 30 -12
12 -17 22 -13 22 4 0 -3 10 -17 21 -14 11 -19 18 -12 14 6 -3 12 -2 12 2 0 10
-30 56 -43 64 -5 3 -8 8 -6 10 4 6 -72 109 -81 109 -4 0 -7 6 -6 13 1 12 -51
75 -131 159 -14 15 -30 25 -36 21 -6 -3 -7 -2 -4 4 7 12 -76 96 -86 87 -4 -4
-7 -2 -7 5 0 7 -5 9 -12 5 -6 -4 -8 -3 -4 4 7 12 -33 44 -46 36 -5 -3 -7 -1
-6 4 2 5 -14 24 -36 41 -38 30 -63 41 -51 21 3 -6 -1 -7 -10 -3 -11 4 -13 8
-5 13 7 4 2 13 -14 24 -14 9 -26 14 -26 11 0 -3 -9 4 -21 16 -11 11 -27 18
-35 15 -8 -3 -13 0 -11 7 1 7 -5 12 -13 12 -8 0 -24 9 -36 20 -29 26 -272 127
-286 119 -6 -4 -8 -3 -5 2 5 9 -240 72 -283 73 -8 0 -37 5 -65 10 -74 14 -145
14 -145 -1 0 -9 -3 -9 -9 1 -9 14 -111 29 -121 17z m370 -40 c0 -3 -4 -8 -10
-11 -5 -3 -10 -1 -10 4 0 6 5 11 10 11 6 0 10 -2 10 -4z m491 -179 c-10 -9
-11 -8 -5 6 3 10 9 15 12 12 3 -3 0 -11 -7 -18z m-2224 -489 c2 -17 0 -19 -7
-8 -5 8 -6 18 -4 22 8 12 10 10 11 -14z m1464 -587 c8 -21 15 -28 27 -24 12 3
14 2 4 -4 -13 -10 -8 -36 12 -62 6 -7 11 -19 11 -25 0 -20 58 -116 66 -110 5
3 6 -3 2 -12 -4 -12 -3 -15 5 -10 7 4 10 2 6 -7 -2 -7 10 -29 28 -47 18 -18
26 -29 18 -25 -10 5 -8 1 4 -13 11 -12 24 -22 30 -22 6 0 4 5 -4 11 -13 9 -13
10 0 6 8 -2 15 -9 15 -15 0 -6 6 -17 13 -23 6 -7 12 -9 12 -4 0 5 6 0 14 -11
18 -25 261 -147 294 -147 7 0 16 -14 20 -31 9 -32 4 -76 -7 -74 -6 2 -26 -7
-123 -49 -20 -9 -35 -20 -33 -24 3 -4 -3 -6 -13 -5 -9 0 -16 -4 -15 -10 1 -8
-6 -10 -19 -6 -16 4 -19 2 -13 -8 5 -9 4 -11 -4 -6 -6 4 -18 2 -26 -4 -8 -7
-15 -10 -15 -6 0 4 -11 -1 -25 -10 -14 -9 -22 -21 -18 -27 3 -5 2 -7 -4 -4
-14 9 -85 -53 -79 -69 3 -7 0 -16 -6 -20 -7 -4 -8 -3 -4 4 4 7 2 12 -3 12 -6
0 -11 -4 -11 -8 0 -5 -13 -28 -29 -52 -16 -24 -26 -50 -23 -58 3 -9 1 -13 -4
-9 -9 5 -25 -22 -76 -127 -7 -14 -6 -16 4 -10 8 5 7 1 -3 -12 -8 -10 -20 -31
-27 -46 -8 -19 -19 -28 -35 -28 -13 0 -28 -5 -35 -10 -6 -6 -10 -7 -7 -3 3 3
-4 12 -15 20 -11 8 -20 21 -20 30 0 9 -8 22 -17 30 -12 10 -13 12 -3 8 10 -4
9 -2 -2 8 -10 8 -15 16 -13 19 9 9 -37 101 -64 126 -17 16 -22 26 -14 29 15 5
-41 93 -58 93 -6 0 -7 5 -4 10 8 13 -1 13 -28 -1 -22 -10 -22 -10 -2 7 15 12
16 18 7 21 -7 3 -22 14 -33 26 -10 11 -19 17 -19 12 0 -5 -7 0 -15 11 -8 10
-15 15 -15 10 0 -4 -8 1 -17 13 -21 25 -62 33 -83 17 -13 -10 -13 -9 -1 7 12
15 8 19 -45 43 -33 15 -65 27 -71 27 -7 0 -13 5 -13 10 0 6 -3 8 -6 4 -4 -3
-13 0 -20 8 -8 8 -20 12 -27 9 -9 -3 -12 10 -12 45 0 27 2 48 6 46 3 -2 19 4
35 13 16 10 48 24 71 31 23 8 40 18 37 22 -3 5 3 6 12 2 14 -5 16 -3 10 13 -6
15 -5 16 5 7 13 -13 40 -2 112 45 32 21 35 27 25 41 -12 14 -11 14 5 2 17 -14
28 -10 62 24 45 44 132 186 103 169 -9 -5 -8 -2 2 12 8 10 18 21 21 24 3 3 14
20 24 39 15 30 15 33 1 28 -14 -6 -15 -3 -6 13 6 11 13 20 16 20 3 0 2 -4 -1
-10 -3 -5 -2 -10 3 -10 11 0 35 50 27 58 -2 3 0 11 7 19 8 11 7 12 -5 8 -8 -4
-17 -3 -20 2 -3 4 24 9 59 11 64 3 65 3 75 -27z m-308 -906 c-3 -9 -8 -14 -10
-11 -3 3 -2 9 2 15 9 16 15 13 8 -4z m2037 -85 c0 -5 -5 -10 -11 -10 -5 0 -7
5 -4 10 3 6 8 10 11 10 2 0 4 -4 4 -10z m-198 -427 c-6 -2 -9 -10 -6 -15 4 -7
2 -8 -5 -4 -13 9 -5 26 12 25 9 0 8 -2 -1 -6z m-2985 -250 c0 -9 -4 -10 -14
-2 -7 6 -13 12 -13 14 0 1 6 2 13 2 8 0 14 -6 14 -14z m-22 -13 c3 -6 -1 -7
-9 -4 -18 7 -21 14 -7 14 6 0 13 -4 16 -10z m80 -110 c10 -11 16 -20 13 -20
-3 0 -13 9 -23 20 -10 11 -16 20 -13 20 3 0 13 -9 23 -20z m101 -60 c0 -12 -4
-16 -9 -11 -5 5 -6 14 -3 20 10 15 12 14 12 -9z m-25 -17 c13 -16 12 -17 -3
-4 -10 7 -18 15 -18 17 0 8 8 3 21 -13z m2479 -57 c0 -2 -7 -7 -16 -10 -8 -3
-12 -2 -9 4 6 10 25 14 25 6z m-1860 -304 c11 -12 9 -13 -11 -7 -32 10 -43 21
-20 21 10 0 24 -7 31 -14z m1335 8 c-3 -5 -12 -10 -18 -10 -7 0 -6 4 3 10 19
12 23 12 15 0z m-1052 -95 c-3 -9 -8 -14 -10 -11 -3 3 -2 9 2 15 9 16 15 13 8
-4z"/>
</g>
</svg>
